Units are S.I. units (second, meters, Newtons, ...)
Angles are in degrees.
name walk
datarows 46
datacolumns 22
range 25.00000 70.00000
endheader
time Pelvis_Z Pelvis_X Pelvis_Y FemurR_Z FemurR_X FemurR_Y TibiaR_Z TibiaR_X TibiaR_Y TalusR_Z TalusR_X TalusR_Y FemurL_Z FemurL_X FemurL_Y TibiaL_Z TibiaL_X TibiaL_Y TalusL_Z TalusL_X TalusL_Y
25.00000 8.65442 0.07048 0.09093 14.96310 0.24895 -6.27330 18.71870 5.38300 -15.47010 12.11870 0.25119 15.03380 17.65810 -3.54000 -12.41880 61.65910 -2.71620 -26.26150 0.24363 5.10931 21.69300
26.00000 8.56207 0.05979 0.10454 13.88260 0.05427 -6.39903 18.14280 5.29057 -15.07090 12.40010 0.39160 15.20550 18.75440 -3.46996 -12.39260 61.28410 -2.11105 -26.81850 1.44670 4.79197 21.42390
27.00000 8.48812 0.04545 0.11562 12.81580 -0.13073 -6.47871 17.54870 5.24650 -14.78840 12.67880 0.53970 15.40860 19.82910 -3.44066 -12.35040 60.63630 -1.53220 -27.26560 2.50863 4.59027 21.21050
28.00000 8.43117 0.02878 0.12482 11.76060 -0.31308 -6.50514 16.94080 5.25279 -14.59330 12.96440 0.69229 15.59260 20.87900 -3.43686 -12.29880 59.72560 -0.99494 -27.61260 3.44161 4.49135 21.05030
29.00000 8.38587 0.01227 0.13378 10.71510 -0.49696 -6.50026 16.32990 5.29725 -14.43680 13.26030 0.84999 15.72360 21.89330 -3.44200 -12.24440 58.55770 -0.50393 -27.87400 4.26480 4.46038 20.93610
30.00000 8.34516 -0.00109 0.14325 9.67662 -0.68191 -6.48785 15.72620 5.36775 -14.28980 13.56250 1.01222 15.80380 22.85580 -3.44359 -12.18900 57.13350 -0.05054 -28.07000 4.99552 4.45154 20.85400
31.00000 8.30351 -0.01037 0.15258 8.64408 -0.86641 -6.46621 15.13640 5.46038 -14.16580 13.86640 1.17327 15.86190 23.74860 -3.43793 -12.13740 55.45200 0.37581 -28.21330 5.64564 4.41964 20.78330
32.00000 8.25920 -0.01772 0.16047 7.62010 -1.05151 -6.41143 14.56490 5.57520 -14.10150 14.16960 1.33029 15.93030 24.55670 -3.42881 -12.10450 53.51320 0.77794 -28.30140 6.21987 4.33962 20.69590
33.00000 8.21526 -0.02558 0.16584 6.60974 -1.23743 -6.30578 14.01520 5.70874 -14.10150 14.47340 1.48065 16.00910 25.27160 -3.42159 -12.10300 51.31840 1.15892 -28.31470 6.71491 4.22631 20.55010
34.00000 8.17947 -0.03375 0.16908 5.62055 -1.41709 -6.16052 13.49140 5.84866 -14.12510 14.78190 1.62082 16.06940 25.89240 -3.42012 -12.13500 48.86860 1.53004 -28.22600 7.12394 4.11164 20.30180
35.00000 8.16405 -0.04173 0.16993 4.66469 -1.57934 -5.99150 12.99840 5.98169 -14.14600 15.09980 1.75511 16.09370 26.42250 -3.42817 -12.19090 46.16380 1.90831 -28.01220 7.44344 4.00412 19.93120
36.00000 8.18352 -0.05063 0.16711 3.75696 -1.71688 -5.80118 12.54030 6.10150 -14.17060 15.43030 1.89838 16.08160 26.86650 -3.45094 -12.25500 43.20380 2.31066 -27.66900 7.66931 3.89168 19.46540
37.00000 8.25042 -0.06046 0.16138 2.90796 -1.82873 -5.58741 12.11920 6.20913 -14.21680 15.77290 2.06727 16.03850 27.22940 -3.49092 -12.31390 39.99030 2.75191 -27.22360 7.79446 3.75803 18.98300
38.00000 8.37095 -0.06840 0.15584 2.12024 -1.91794 -5.35273 11.73640 6.30907 -14.28860 16.12060 2.26999 15.96220 27.51450 -3.54233 -12.35290 36.52680 3.24364 -26.73970 7.81096 3.59699 18.59820
39.00000 8.54101 -0.07268 0.15255 1.38785 -1.98753 -5.10874 11.39330 6.40435 -14.37390 16.46250 2.51013 15.84290 27.72160 -3.59500 -12.38420 32.82740 3.76729 -26.27060 7.70753 3.42793 18.42720
40.00000 8.74444 -0.07470 0.15029 0.69448 -2.03907 -4.87852 11.09450 6.49437 -14.45500 16.79210 2.78319 15.67910 27.84530 -3.64048 -12.44530 28.92680 4.27797 -25.81820 7.47099 3.30117 18.54050
41.00000 8.95946 -0.07854 0.14588 0.02198 -2.07858 -4.67741 10.84680 6.57818 -14.53280 17.10610 3.08022 15.49250 27.87570 -3.67560 -12.55160 24.88170 4.74491 -25.34720 7.09912 3.26724 18.92450
42.00000 9.16617 -0.08874 0.13734 -0.64164 -2.11616 -4.50556 10.65950 6.65575 -14.61900 17.40130 3.39347 15.32120 27.80710 -3.70849 -12.69030 20.77540 5.16651 -24.79360 6.61699 3.31757 19.48070
43.00000 9.34876 -0.10416 0.12734 -1.30642 -2.15143 -4.37970 10.54590 6.72161 -14.70030 17.67360 3.71815 15.19970 27.64660 -3.75977 -12.83180 16.72140 5.56883 -24.10960 6.07282 3.40059 20.07430
44.00000 9.49891 -0.11935 0.11860 -1.97520 -2.16959 -4.31858 10.52390 6.76339 -14.75090 17.91490 4.05693 15.14580 27.41970 -3.85749 -12.93980 12.87100 5.99186 -23.35580 5.51126 3.52196 20.61160
45.00000 9.62017 -0.13094 0.10750 -2.63270 -2.15432 -4.30432 10.61130 6.76862 -14.75930 18.11280 4.42829 15.16090 27.17480 -4.02682 -12.98710 9.42325 6.46755 -22.74580 4.95758 3.80831 21.08510
46.00000 9.72448 -0.13770 0.08657 -3.25084 -2.09738 -4.29669 10.82120 6.72902 -14.72290 18.25490 4.85825 15.23600 26.98520 -4.27286 -12.96350 6.62667 6.99133 -22.58160 4.42691 4.46623 21.56480
47.00000 9.82207 -0.13932 0.05028 -3.80512 -2.00607 -4.26931 11.15960 6.64117 -14.64030 18.33140 5.35688 15.36280 26.93080 -4.56551 -12.87560 4.73877 7.50073 -23.05470 3.94518 5.61003 22.12730
48.00000 9.90923 -0.13526 -0.00139 -4.29121 -1.90744 -4.23350 11.62490 6.50277 -14.50710 18.33450 5.92096 15.54390 27.04760 -4.83995 -12.74530 3.92322 7.89469 -24.07660 3.56923 7.01627 22.78650
49.00000 9.96238 -0.12468 -0.06343 -4.73204 -1.84862 -4.22934 12.20980 6.30940 -14.31310 18.25640 6.54509 15.78430 27.28180 -5.01146 -12.61040 4.15279 8.08896 -25.34420 3.38248 8.12037 23.47000
50.00000 9.80053 0.06570 0.04384 -5.16876 -1.88665 -4.29548 12.90440 6.05683 -14.04560 18.08710 7.21781 16.07290 27.61540 -5.22256 -12.15420 5.33270 8.05303 -27.12520 2.44871 8.61625 24.21400
51.00000 9.70614 0.09606 -0.01475 -5.63456 -2.06362 -4.45052 13.70510 5.74458 -13.70640 17.81390 7.92281 16.39050 27.69960 -5.00650 -12.09860 6.79178 7.89646 -27.85880 2.28549 8.02759 24.27730
52.00000 9.54361 0.11491 -0.05850 -6.12704 -2.38251 -4.68594 14.62020 5.37350 -13.32900 17.41440 8.64498 16.72840 27.65010 -4.62925 -12.06850 8.41980 7.69203 -28.12390 1.89563 6.85124 23.54670
53.00000 9.34810 0.12050 -0.08776 -6.60117 -2.80556 -4.96907 15.67250 4.93895 -12.97810 16.84800 9.37057 17.09630 27.51750 -4.15765 -11.99850 10.04720 7.49866 -27.95580 1.25619 5.47119 22.16300
54.00000 9.15798 0.11725 -0.10650 -6.98635 -3.27806 -5.26418 16.90280 4.43121 -12.71710 16.05830 10.07970 17.50810 27.39160 -3.66114 -11.87360 11.64740 7.32462 -27.39010 0.64549 4.14312 20.57030
55.00000 8.99464 0.11199 -0.11884 -7.21022 -3.75920 -5.55258 18.37210 3.84795 -12.58840 14.98770 10.73560 17.97070 27.34360 -3.18085 -11.75060 13.29930 7.17071 -26.47120 0.42386 2.90362 19.18130
56.00000 8.85600 0.10922 -0.12695 -7.21504 -4.23599 -5.83804 20.15390 3.20356 -12.63020 13.58570 11.26760 18.49950 27.37020 -2.71017 -11.69420 15.05490 7.04837 -25.37290 0.76451 1.68246 18.17270
57.00000 8.72464 0.11027 -0.12987 -6.96390 -4.71328 -6.13537 22.31550 2.52634 -12.89250 11.81590 11.55840 19.12790 27.38110 -2.20733 -11.70800 16.82350 6.95150 -24.36460 1.59231 0.50262 17.51370
58.00000 8.58103 0.11575 -0.12374 -6.44113 -5.20082 -6.44267 24.89730 1.85045 -13.41670 9.68500 11.45500 19.87900 27.25290 -1.63580 -11.74130 18.41030 6.85343 -23.62540 2.68056 -0.51021 17.08660
59.00000 8.41587 0.12460 -0.10450 -5.65008 -5.70711 -6.72903 27.89340 1.19965 -14.19430 7.27485 10.84010 20.73200 26.90470 -1.00039 -11.73270 19.65020 6.74323 -23.17090 3.81827 -1.30333 16.78910
60.00000 8.23834 0.13316 -0.07118 -4.60581 -6.22442 -6.94539 31.24120 0.56519 -15.15410 4.73698 9.74311 21.63430 26.33200 -0.34573 -11.64870 20.49180 6.63988 -22.93290 4.89818 -1.90272 16.53790
61.00000 8.07132 0.13582 -0.02828 -3.32755 -6.71716 -7.05164 34.83350 -0.10314 -16.16480 2.23104 8.33685 22.51060 25.58850 0.26736 -11.50370 20.98500 6.57301 -22.82040 5.89008 -2.31977 16.23630
62.00000 7.93276 0.12672 0.01509 -1.84270 -7.13023 -7.04980 38.54940 -0.87598 -17.03460 -0.17055 6.80061 23.21050 24.73950 0.78214 -11.35070 21.21980 6.56483 -22.75050 6.79511 -2.56079 15.83870
63.00000 7.82221 0.10399 0.04783 -0.19518 -7.41372 -6.99472 42.27930 -1.80409 -17.57040 -2.55108 5.26235 23.49450 23.82860 1.16720 -11.25420 21.28010 6.62075 -22.68290 7.62716 -2.64957 15.40720
64.00000 7.72615 0.07192 0.06084 1.55870 -7.54812 -6.96633 45.93100 -2.88836 -17.66510 -5.07990 3.87539 23.14340 22.87420 1.43230 -11.25440 21.21950 6.72795 -22.63750 8.39941 -2.61527 15.06630
65.00000 7.63091 0.03794 0.05050 3.36257 -7.54862 -7.02261 49.42840 -4.07587 -17.34580 -7.83492 2.83757 22.09250 21.87600 1.61852 -11.34090 21.05170 6.86657 -22.68200 9.11417 -2.48588 14.93790
66.00000 7.53087 0.00947 0.02055 5.16693 -7.44397 -7.18399 52.70800 -5.28598 -16.77050 -10.68680 2.32845 20.49090 20.82670 1.76980 -11.45590 20.76390 7.02328 -22.88940 9.76530 -2.28785 15.08980
67.00000 7.43148 -0.01004 -0.02117 6.93558 -7.26185 -7.43859 55.71090 -6.43419 -16.16570 -13.30190 2.38930 18.66700 19.72700 1.91225 -11.53360 20.34480 7.18941 -23.27750 10.34590 -2.04526 15.50490
68.00000 7.34530 -0.02509 -0.07006 8.64927 -7.02579 -7.73917 58.37800 -7.43382 -15.74110 -15.26800 2.82356 17.01870 18.58900 2.05002 -11.53540 19.80650 7.34802 -23.76520 10.85310 -1.78135 16.07750
69.00000 7.28082 -0.04241 -0.12421 10.29480 -6.74912 -8.02099 60.65410 -8.20774 -15.62740 -16.28940 3.27686 15.88010 17.42920 2.17279 -11.47070 19.18580 7.46855 -24.17990 11.28980 -1.52052 16.64370
70.00000 7.23706 -0.06215 -0.17787 11.85620 -6.43793 -8.23437 62.49880 -8.71181 -15.85100 -16.31020 3.46468 15.41490 16.26780 2.27144 -11.40300 18.53170 7.51616 -24.34140 11.66530 -1.28374 17.06180
